<svg width="512" height="512" viewBox="0 0 512 512" version="1.1" xmlns="http://www.w3.org/2000/svg" xmlns:xlink="http://www.w3.org/1999/xlink">
<title>icon</title>
<desc>Created using Figma</desc>
<g id="Canvas" transform="matrix(2 0 0 2 -486 1146)">
<clipPath id="clip-0" clip-rule="evenodd">
<path d="M 243 -573L 499 -573L 499 -317L 243 -317L 243 -573Z" fill="#FFFFFF"/>
</clipPath>
<g id="icon" clip-path="url(#clip-0)">
<path d="M 243 -573L 499 -573L 499 -317L 243 -317L 243 -573Z" fill="#57C275"/>
<g id="Group">
<g id="Vector" filter="url(#filter0_dd)">
<use xlink:href="#path0_fill" transform="matrix(0.999227 -0.039313 0.0385786 0.999256 291 -518.942)" fill="#FFFFFF"/>
</g>
<g id="Vector 3 (Stroke)">
<use xlink:href="#path1_fill" transform="translate(340.779 -464.815)" fill="#4F7EF7"/>
</g>
</g>
<g id="Group 2">
<g id="anonymous">
<g id="Rectangle">
<use xlink:href="#path2_fill" transform="matrix(0.92323 -0.384249 0.384982 0.922924 431.424 -522.031)" fill="#FFFFFF" fill-opacity="0.15" style="mix-blend-mode:overlay"/>
</g>
<g id="Group">
<g id="Group">
<g id="Vector">
<use xlink:href="#path3_fill" transform="matrix(0.92323 -0.384249 0.384982 0.922924 456.425 -501.692)" fill="#37A154"/>
</g>
<g id="Vector">
<use xlink:href="#path4_fill" transform="matrix(0.92323 -0.384249 0.384982 0.922924 460.762 -519.023)" fill="#37A154"/>
</g>
<g id="Vector">
<use xlink:href="#path5_fill" transform="matrix(0.92323 -0.384249 0.384982 0.922924 469.247 -498.441)" fill="#37A154"/>
</g>
<g id="Vector">
<use xlink:href="#path6_fill" transform="matrix(0.92323 -0.384249 0.384982 0.922924 458.809 -494.646)" fill="#37A154"/>
</g>
<g id="Vector">
<use xlink:href="#path7_fill" transform="matrix(0.92323 -0.384249 0.384982 0.922924 475.876 -501.799)" fill="#37A154"/>
</g>
</g>
</g>
</g>
<g id="anonymous">
<g id="Rectangle">
<use xlink:href="#path8_fill" transform="matrix(0.985901 0.167329 -0.167693 0.985839 457.63 -427.521)" fill="#FFFFFF" fill-opacity="0.15" style="mix-blend-mode:overlay"/>
</g>
<g id="Group">
<g id="Group">
<g id="Vector">
<use xlink:href="#path9_fill" transform="matrix(0.985901 0.167329 -0.167693 0.985839 467.901 -396.991)" fill="#37A154"/>
</g>
<g id="Vector">
<use xlink:href="#path10_fill" transform="matrix(0.985901 0.167329 -0.167693 0.985839 480.831 -409.334)" fill="#37A154"/>
</g>
<g id="Vector">
<use xlink:href="#path11_fill" transform="matrix(0.985901 0.167329 -0.167693 0.985839 477.006 -387.406)" fill="#37A154"/>
</g>
<g id="Vector">
<use xlink:href="#path12_fill" transform="matrix(0.985901 0.167329 -0.167693 0.985839 466.151 -389.762)" fill="#37A154"/>
</g>
<g id="Vector">
<use xlink:href="#path13_fill" transform="matrix(0.985901 0.167329 -0.167693 0.985839 484.406 -386.711)" fill="#37A154"/>
</g>
</g>
</g>
</g>
<g id="anonymous">
<g id="Rectangle">
<use xlink:href="#path14_fill" transform="matrix(0.786175 -0.618003 0.618858 0.785503 459.222 -334.04)" fill="#FFFFFF" fill-opacity="0.15" style="mix-blend-mode:overlay"/>
</g>
<g id="Group">
<g id="Group">
<g id="Vector">
<use xlink:href="#path15_fill" transform="matrix(0.786175 -0.618003 0.618858 0.785503 465.965 -331.1)" fill="#37A154"/>
</g>
<g id="Vector">
<use xlink:href="#path16_fill" transform="matrix(0.786175 -0.618003 0.618858 0.785503 465.855 -335.175)" fill="#37A154"/>
</g>
<g id="Vector">
<use xlink:href="#path17_fill" transform="matrix(0.786175 -0.618003 0.618858 0.785503 468.983 -331.17)" fill="#37A154"/>
</g>
<g id="Vector">
<use xlink:href="#path18_fill" transform="matrix(0.786175 -0.618003 0.618858 0.785503 466.921 -329.697)" fill="#37A154"/>
</g>
<g id="Vector">
<use xlink:href="#path19_fill" transform="matrix(0.786175 -0.618003 0.618858 0.785503 470.234 -332.314)" fill="#37A154"/>
</g>
</g>
</g>
</g>
<g id="anonymous">
<g id="Rectangle">
<use xlink:href="#path20_fill" transform="matrix(0.998626 -0.0524096 0.0525266 0.998619 458.549 -559.87)" fill="#FFFFFF" fill-opacity="0.15" style="mix-blend-mode:overlay"/>
</g>
<g id="Group">
<g id="Group">
<g id="Vector">
<use xlink:href="#path21_fill" transform="matrix(0.998626 -0.0524096 0.0525266 0.998619 462.363 -553.585)" fill="#37A154"/>
</g>
<g id="Vector">
<use xlink:href="#path22_fill" transform="matrix(0.998626 -0.0524096 0.0525266 0.998619 464.624 -556.978)" fill="#37A154"/>
</g>
<g id="Vector">
<use xlink:href="#path23_fill" transform="matrix(0.998626 -0.0524096 0.0525266 0.998619 464.87 -551.905)" fill="#37A154"/>
</g>
<g id="Vector">
<use xlink:href="#path24_fill" transform="matrix(0.998626 -0.0524096 0.0525266 0.998619 462.335 -551.888)" fill="#37A154"/>
</g>
<g id="Vector">
<use xlink:href="#path25_fill" transform="matrix(0.998626 -0.0524096 0.0525266 0.998619 466.552 -552.12)" fill="#37A154"/>
</g>
</g>
</g>
</g>
<g id="anonymous">
</g>
<g id="anonymous">
<g id="Rectangle">
<use xlink:href="#path26_fill" transform="matrix(0.965998 -0.258549 0.259089 0.965853 480.975 -468.549)" fill="#FFFFFF" fill-opacity="0.15" style="mix-blend-mode:overlay"/>
</g>
<g id="Group">
<g id="Group">
<g id="Vector">
<use xlink:href="#path27_fill" transform="matrix(0.965998 -0.258549 0.259089 0.965853 487.156 -461.978)" fill="#37A154"/>
</g>
<g id="Vector">
<use xlink:href="#path28_fill" transform="matrix(0.965998 -0.258549 0.259089 0.965853 489.003 -466.626)" fill="#37A154"/>
</g>
<g id="Vector">
<use xlink:href="#path29_fill" transform="matrix(0.965998 -0.258549 0.259089 0.965853 490.593 -460.601)" fill="#37A154"/>
</g>
<g id="Vector">
<use xlink:href="#path30_fill" transform="matrix(0.965998 -0.258549 0.259089 0.965853 487.555 -459.935)" fill="#37A154"/>
</g>
<g id="Vector">
<use xlink:href="#path31_fill" transform="matrix(0.965998 -0.258549 0.259089 0.965853 492.557 -461.287)" fill="#37A154"/>
</g>
</g>
</g>
</g>
<g id="anonymous">
<g id="Rectangle">
<use xlink:href="#path32_fill" transform="matrix(0.908625 -0.417613 0.418384 0.90827 216 -396.038)" fill="#FFFFFF" fill-opacity="0.15" style="mix-blend-mode:overlay"/>
</g>
<g id="Group">
<g id="Group">
<g id="Vector">
<use xlink:href="#path33_fill" transform="matrix(0.908625 -0.417613 0.418384 0.90827 241.726 -376.622)" fill="#37A154"/>
</g>
<g id="Vector">
<use xlink:href="#path34_fill" transform="matrix(0.908625 -0.417613 0.418384 0.90827 245.428 -394.1)" fill="#37A154"/>
</g>
<g id="Vector">
<use xlink:href="#path35_fill" transform="matrix(0.908625 -0.417613 0.418384 0.90827 254.658 -373.84)" fill="#37A154"/>
</g>
<g id="Vector">
<use xlink:href="#path36_fill" transform="matrix(0.908625 -0.417613 0.418384 0.90827 244.365 -369.668)" fill="#37A154"/>
</g>
<g id="Vector">
<use xlink:href="#path37_fill" transform="matrix(0.908625 -0.417613 0.418384 0.90827 261.16 -377.438)" fill="#37A154"/>
</g>
</g>
</g>
</g>
<g id="anonymous">
<g id="Rectangle">
<use xlink:href="#path38_fill" transform="matrix(0.990029 0.140865 -0.141174 0.989985 218.444 -528)" fill="#FFFFFF" fill-opacity="0.15" style="mix-blend-mode:overlay"/>
</g>
<g id="Group">
<g id="Group">
<g id="Vector">
<use xlink:href="#path39_fill" transform="matrix(0.990029 0.140865 -0.141174 0.989985 229.531 -497.756)" fill="#37A154"/>
</g>
<g id="Vector">
<use xlink:href="#path40_fill" transform="matrix(0.990029 0.140865 -0.141174 0.989985 242.125 -510.441)" fill="#37A154"/>
</g>
<g id="Vector">
<use xlink:href="#path41_fill" transform="matrix(0.990029 0.140865 -0.141174 0.989985 238.89 -488.418)" fill="#37A154"/>
</g>
<g id="Vector">
<use xlink:href="#path42_fill" transform="matrix(0.990029 0.140865 -0.141174 0.989985 227.976 -490.483)" fill="#37A154"/>
</g>
<g id="Vector">
<use xlink:href="#path43_fill" transform="matrix(0.990029 0.140865 -0.141174 0.989985 246.307 -487.921)" fill="#37A154"/>
</g>
</g>
</g>
</g>
<g id="anonymous">
<g id="Rectangle">
<use xlink:href="#path44_fill" transform="matrix(0.881372 -0.472423 0.473245 0.880931 287.721 -537.238)" fill="#FFFFFF" fill-opacity="0.15" style="mix-blend-mode:overlay"/>
</g>
<g id="Group">
<g id="Group">
<g id="Vector">
<use xlink:href="#path45_fill" transform="matrix(0.881372 -0.472423 0.473245 0.880931 297.787 -530.567)" fill="#37A154"/>
</g>
<g id="Vector">
<use xlink:href="#path46_fill" transform="matrix(0.881372 -0.472423 0.473245 0.880931 298.77 -537.187)" fill="#37A154"/>
</g>
<g id="Vector">
<use xlink:href="#path47_fill" transform="matrix(0.881372 -0.472423 0.473245 0.880931 302.686 -529.823)" fill="#37A154"/>
</g>
<g id="Vector">
<use xlink:href="#path48_fill" transform="matrix(0.881372 -0.472423 0.473245 0.880931 298.933 -528.027)" fill="#37A154"/>
</g>
<g id="Vector">
<use xlink:href="#path49_fill" transform="matrix(0.881372 -0.472423 0.473245 0.880931 305.035 -531.317)" fill="#37A154"/>
</g>
</g>
</g>
</g>
<g id="anonymous">
<g id="Rectangle">
<use xlink:href="#path50_fill" transform="matrix(0.956537 0.291611 -0.292209 0.956355 381.698 -564.613)" fill="#FFFFFF" fill-opacity="0.15" style="mix-blend-mode:overlay"/>
</g>
<g id="Group">
<g id="Group">
<g id="Vector">
<use xlink:href="#path51_fill" transform="matrix(0.956537 0.291611 -0.292209 0.956355 384.054 -552.778)" fill="#37A154"/>
</g>
<g id="Vector">
<use xlink:href="#path52_fill" transform="matrix(0.956537 0.291611 -0.292209 0.956355 389.448 -556.747)" fill="#37A154"/>
</g>
<g id="Vector">
<use xlink:href="#path53_fill" transform="matrix(0.956537 0.291611 -0.292209 0.956355 386.978 -548.782)" fill="#37A154"/>
</g>
<g id="Vector">
<use xlink:href="#path54_fill" transform="matrix(0.956537 0.291611 -0.292209 0.956355 383.058 -550.176)" fill="#37A154"/>
</g>
<g id="Vector">
<use xlink:href="#path55_fill" transform="matrix(0.956537 0.291611 -0.292209 0.956355 389.695 -548.17)" fill="#37A154"/>
</g>
</g>
</g>
</g>
<g id="anonymous">
<g id="Rectangle">
<use xlink:href="#path56_fill" transform="matrix(0.947368 -0.320147 0.32079 0.94715 367.263 -341.446)" fill="#FFFFFF" fill-opacity="0.15" style="mix-blend-mode:overlay"/>
</g>
<g id="Group">
<g id="Group">
<g id="Vector">
<use xlink:href="#path57_fill" transform="matrix(0.947368 -0.320147 0.32079 0.94715 372.53 -336.524)" fill="#37A154"/>
</g>
<g id="Vector">
<use xlink:href="#path58_fill" transform="matrix(0.947368 -0.320147 0.32079 0.94715 373.764 -340.325)" fill="#37A154"/>
</g>
<g id="Vector">
<use xlink:href="#path59_fill" transform="matrix(0.947368 -0.320147 0.32079 0.94715 375.341 -335.603)" fill="#37A154"/>
</g>
<g id="Vector">
<use xlink:href="#path60_fill" transform="matrix(0.947368 -0.320147 0.32079 0.94715 372.954 -334.916)" fill="#37A154"/>
</g>
<g id="Vector">
<use xlink:href="#path61_fill" transform="matrix(0.947368 -0.320147 0.32079 0.94715 376.872 -336.251)" fill="#37A154"/>
</g>
</g>
</g>
</g>
<g id="anonymous">
<g id="Rectangle">
<use xlink:href="#path56_fill" transform="matrix(0.947368 -0.320147 0.32079 0.94715 332.935 -548.739)" fill="#FFFFFF" fill-opacity="0.15" style="mix-blend-mode:overlay"/>
</g>
<g id="Group">
<g id="Group">
<g id="Vector">
<use xlink:href="#path57_fill" transform="matrix(0.947368 -0.320147 0.32079 0.94715 338.202 -543.817)" fill="#37A154"/>
</g>
<g id="Vector">
<use xlink:href="#path58_fill" transform="matrix(0.947368 -0.320147 0.32079 0.94715 339.436 -547.618)" fill="#37A154"/>
</g>
<g id="Vector">
<use xlink:href="#path59_fill" transform="matrix(0.947368 -0.320147 0.32079 0.94715 341.013 -542.896)" fill="#37A154"/>
</g>
<g id="Vector">
<use xlink:href="#path60_fill" transform="matrix(0.947368 -0.320147 0.32079 0.94715 338.626 -542.209)" fill="#37A154"/>
</g>
<g id="Vector">
<use xlink:href="#path61_fill" transform="matrix(0.947368 -0.320147 0.32079 0.94715 342.544 -543.544)" fill="#37A154"/>
</g>
</g>
</g>
</g>
<g id="anonymous">
<g id="Rectangle">
<use xlink:href="#path62_fill" transform="matrix(0.86637 -0.499402 0.500241 0.865886 406.478 -354.88)" fill="#FFFFFF" fill-opacity="0.15" style="mix-blend-mode:overlay"/>
</g>
<g id="Group">
<g id="Group">
<g id="Vector">
<use xlink:href="#path63_fill" transform="matrix(0.86637 -0.499402 0.500241 0.865886 416.745 -348.523)" fill="#37A154"/>
</g>
<g id="Vector">
<use xlink:href="#path64_fill" transform="matrix(0.86637 -0.499402 0.500241 0.865886 417.522 -355.171)" fill="#37A154"/>
</g>
<g id="Vector">
<use xlink:href="#path65_fill" transform="matrix(0.86637 -0.499402 0.500241 0.865886 421.665 -347.931)" fill="#37A154"/>
</g>
<g id="Vector">
<use xlink:href="#path66_fill" transform="matrix(0.86637 -0.499402 0.500241 0.865886 417.969 -346.02)" fill="#37A154"/>
</g>
<g id="Vector">
<use xlink:href="#path67_fill" transform="matrix(0.86637 -0.499402 0.500241 0.865886 423.966 -349.497)" fill="#37A154"/>
</g>
</g>
</g>
</g>
<g id="anonymous">
<g id="Rectangle">
<use xlink:href="#path68_fill" transform="matrix(0.906357 0.422512 -0.423289 0.905995 320.906 -362.898)" fill="#FFFFFF" fill-opacity="0.15" style="mix-blend-mode:overlay"/>
</g>
<g id="Group">
<g id="Group">
<g id="Vector">
<use xlink:href="#path69_fill" transform="matrix(0.906357 0.422512 -0.423289 0.905995 321.58 -350.851)" fill="#37A154"/>
</g>
<g id="Vector">
<use xlink:href="#path70_fill" transform="matrix(0.906357 0.422512 -0.423289 0.905995 327.478 -354.027)" fill="#37A154"/>
</g>
<g id="Vector">
<use xlink:href="#path71_fill" transform="matrix(0.906357 0.422512 -0.423289 0.905995 323.916 -346.485)" fill="#37A154"/>
</g>
<g id="Vector">
<use xlink:href="#path72_fill" transform="matrix(0.906357 0.422512 -0.423289 0.905995 320.229 -348.413)" fill="#37A154"/>
</g>
<g id="Vector">
<use xlink:href="#path73_fill" transform="matrix(0.906357 0.422512 -0.423289 0.905995 326.52 -345.5)" fill="#37A154"/>
</g>
</g>
</g>
</g>
<g id="anonymous">
<g id="Rectangle">
<use xlink:href="#path74_fill" transform="matrix(0.96009 0.279692 -0.280269 0.959921 258.481 -558.27)" fill="#FFFFFF" fill-opacity="0.15" style="mix-blend-mode:overlay"/>
</g>
<g id="Group">
<g id="Group">
<g id="Vector">
<use xlink:href="#path75_fill" transform="matrix(0.96009 0.279692 -0.280269 0.959921 260.005 -551.081)" fill="#37A154"/>
</g>
<g id="Vector">
<use xlink:href="#path76_fill" transform="matrix(0.96009 0.279692 -0.280269 0.959921 263.261 -553.539)" fill="#37A154"/>
</g>
<g id="Vector">
<use xlink:href="#path77_fill" transform="matrix(0.96009 0.279692 -0.280269 0.959921 261.817 -548.669)" fill="#37A154"/>
</g>
<g id="Vector">
<use xlink:href="#path78_fill" transform="matrix(0.96009 0.279692 -0.280269 0.959921 259.418 -549.488)" fill="#37A154"/>
</g>
<g id="Vector">
<use xlink:href="#path79_fill" transform="matrix(0.96009 0.279692 -0.280269 0.959921 263.476 -548.317)" fill="#37A154"/>
</g>
</g>
</g>
</g>
<g id="anonymous">
<g id="Rectangle">
<use xlink:href="#path80_fill" transform="matrix(0.906309 0.422616 -0.423393 0.905946 285.357 -338.064)" fill="#FFFFFF" fill-opacity="0.15" style="mix-blend-mode:overlay"/>
</g>
<g id="Group">
<g id="Group">
<g id="Vector">
<use xlink:href="#path81_fill" transform="matrix(0.906309 0.422616 -0.423393 0.905946 285.766 -330.726)" fill="#37A154"/>
</g>
<g id="Vector">
<use xlink:href="#path82_fill" transform="matrix(0.906309 0.422616 -0.423393 0.905946 289.359 -332.66)" fill="#37A154"/>
</g>
<g id="Vector">
<use xlink:href="#path83_fill" transform="matrix(0.906309 0.422616 -0.423393 0.905946 287.189 -328.067)" fill="#37A154"/>
</g>
<g id="Vector">
<use xlink:href="#path84_fill" transform="matrix(0.906309 0.422616 -0.423393 0.905946 284.944 -329.242)" fill="#37A154"/>
</g>
<g id="Vector">
<use xlink:href="#path85_fill" transform="matrix(0.906309 0.422616 -0.423393 0.905946 288.775 -327.467)" fill="#37A154"/>
</g>
</g>
</g>
</g>
<g id="anonymous">
<g id="Rectangle">
<use xlink:href="#path86_fill" transform="matrix(-0.536242 -0.844064 0.844606 -0.535388 238.208 -533.611)" fill="#FFFFFF" fill-opacity="0.15" style="mix-blend-mode:overlay"/>
</g>
</g>
<g id="anonymous">
<g id="Rectangle">
<use xlink:href="#path87_fill" transform="matrix(0.978857 -0.204544 0.204983 0.978765 251.989 -442.612)" fill="#FFFFFF" fill-opacity="0.15" style="mix-blend-mode:overlay"/>
</g>
<g id="Group">
<g id="Group">
<g id="Vector">
<use xlink:href="#path88_fill" transform="matrix(0.978857 -0.204544 0.204983 0.978765 257.795 -435.709)" fill="#37A154"/>
</g>
<g id="Vector">
<use xlink:href="#path89_fill" transform="matrix(0.978857 -0.204544 0.204983 0.978765 259.898 -440.247)" fill="#37A154"/>
</g>
<g id="Vector">
<use xlink:href="#path90_fill" transform="matrix(0.978857 -0.204544 0.204983 0.978765 261.15 -434.143)" fill="#37A154"/>
</g>
<g id="Vector">
<use xlink:href="#path91_fill" transform="matrix(0.978857 -0.204544 0.204983 0.978765 258.08 -433.646)" fill="#37A154"/>
</g>
<g id="Vector">
<use xlink:href="#path92_fill" transform="matrix(0.978857 -0.204544 0.204983 0.978765 263.149 -434.719)" fill="#37A154"/>
</g>
</g>
</g>
</g>
</g>
</g>
</g>
<defs>
<filter id="filter0_dd" filterUnits="userSpaceOnUse" x="224" y="-589" width="294" height="298" color-interpolation-filters="sRGB">
<feFlood flood-opacity="0" result="BackgroundImageFix"/>
<feColorMatrix in="SourceAlpha" type="matrix" values="0 0 0 0 0 0 0 0 0 0 0 0 0 0 0 0 0 0 255 0"/>
<feOffset dx="0" dy="4"/>
<feGaussianBlur stdDeviation="35"/>
<feColorMatrix type="matrix" values="0 0 0 0 0 0 0 0 0 0 0 0 0 0 0 0 0 0 0.14 0"/>
<feBlend mode="normal" in2="BackgroundImageFix" result="effect1_dropShadow"/>
<feColorMatrix in="SourceAlpha" type="matrix" values="0 0 0 0 0 0 0 0 0 0 0 0 0 0 0 0 0 0 255 0"/>
<feOffset dx="0" dy="8"/>
<feGaussianBlur stdDeviation="1"/>
<feColorMatrix type="matrix" values="0 0 0 0 0 0 0 0 0 0 0 0 0 0 0 0 0 0 0.1 0"/>
<feBlend mode="normal" in2="effect1_dropShadow" result="effect2_dropShadow"/>
<feBlend mode="normal" in="SourceGraphic" in2="effect2_dropShadow" result="shape"/>
</filter>
<path id="path0_fill" d="M 154.057 67.6036C 153.378 63.0209 148.849 59.584 147.717 55.4596C 146.359 51.1061 147.944 45.6069 145.906 41.7117C 143.868 37.8164 138.434 35.9834 135.717 32.5464C 133 29.1094 132.547 23.3811 129.377 20.4024C 126.207 17.4237 120.32 17.6529 116.697 15.1324C 113.075 12.8411 110.81 7.57106 106.508 5.738C 102.433 4.13408 97.225 6.19627 92.9229 5.27974C 88.6209 4.36321 84.7717 0.238842 80.2433 0.00971043C 75.9412 -0.219421 71.6392 3.67582 67.1108 4.36321C 62.5823 5.05061 57.601 2.30103 53.5254 3.67582C 49.2234 5.05061 46.5063 10.0915 42.6571 12.1537C 38.8079 14.2159 33.1474 13.5285 29.5246 16.2781C 26.1283 19.0276 25.2226 24.7559 22.2791 27.9638C 19.3356 31.1716 13.675 32.5464 11.4108 36.2125C 9.14656 39.8786 10.2787 45.6069 8.46729 49.7313C 6.88233 53.8557 2.12745 56.8344 0.995342 61.417C 0.0896512 65.7705 3.03315 70.5823 3.03315 74.9358C 2.80672 79.2893 -0.589617 83.8719 0.0896512 88.4545C 0.768919 93.0372 5.29737 96.4742 6.42949 100.599C 7.78802 104.952 6.20306 110.451 8.24087 114.346C 10.2787 118.242 15.7128 120.075 18.4299 123.512C 21.147 126.949 21.5998 132.677 24.7697 135.656C 27.9396 138.634 33.8266 138.405 37.4494 140.926C 41.0722 143.217 43.3364 148.487 47.6384 150.32C 51.714 151.924 56.9217 149.862 61.2238 150.778C 65.5258 151.695 69.375 155.819 73.9034 156.048C 78.2055 156.277 82.5075 152.382 87.0359 151.695C 91.5644 151.007 96.5457 153.757 100.621 152.382C 104.923 151.007 107.64 145.967 111.49 143.904C 115.339 141.842 120.999 142.53 124.622 139.78C 128.018 137.03 128.924 131.302 131.868 128.094C 134.811 124.886 140.472 123.512 142.736 119.846C 145 116.179 143.868 110.451 145.679 106.327C 147.264 102.202 152.019 99.2237 153.151 94.6411C 154.057 90.2876 151.114 85.4758 151.114 81.1223C 151.114 76.5397 154.51 71.9571 154.057 67.6036Z"/>
<path id="path1_fill" fill-rule="evenodd" d="M 62.6776 6.35676C 63.4523 7.1367 63.4523 8.39568 62.6776 9.17562L 24.3668 47.7461C 23.5847 48.5335 22.311 48.5335 21.5289 47.7461L 1.39994 27.4807C 0.625247 26.7008 0.625248 25.4418 1.39994 24.6618L 6.29491 19.7337C 7.07704 18.9463 8.35075 18.9463 9.13288 19.7337L 21.5289 32.2137C 22.311 33.0012 23.5847 33.0012 24.3668 32.2137L 54.9447 1.4286C 55.7268 0.641174 57.0005 0.641175 57.7826 1.4286L 62.6776 6.35676Z"/>
<path id="path2_fill" d="M 0 33.453C 0 14.9774 14.9774 0 33.453 0L 33.5057 0C 51.9813 0 66.9587 14.9774 66.9587 33.453C 66.9587 51.9286 51.9813 66.906 33.5057 66.906L 33.453 66.906C 14.9774 66.906 0 51.9286 0 33.453Z"/>
<path id="path3_fill" d="M 18.3351 7.37443C 26.4126 7.37443 35.7436 5.53082 36.5792 3.87158C 37.4148 2.21233 26.1805 1.7582e-07 26.1805 1.7582e-07C 23.488 1.24444 18.2887 1.24443 18.2887 1.24443C 18.2887 1.24443 13.0893 1.24444 10.3968 1.7582e-07C 10.3968 1.7582e-07 -0.791026 2.25842 0.0445813 3.91767C 0.926611 5.53082 10.0254 7.37443 18.3351 7.37443Z"/>
<path id="path4_fill" d="M 14.6231 11.1544C 14.6231 11.1544 13.0448 2.21289 11.8842 0.461466C 10.7236 -1.28996 8.95957 2.53552 7.14908 2.53552C 5.3386 2.53552 4.9208 0.092744 3.29601 0.000563602C 1.62479 -0.0916168 1.77088e-07 11.1544 1.77088e-07 11.1544C 1.77088e-07 11.1544 8.54176 13.0902 14.6231 11.1544Z"/>
<path id="path5_fill" d="M 0.0464226 -3.5164e-07C 0.0464226 -3.5164e-07 -0.696339 3.41067 3.76023 3.50285C 3.76023 3.50285 5.47787 3.50285 6.3599 1.98188C 6.63843 1.52098 7.05624 1.24443 7.61331 1.24443L 7.799 1.24443C 8.30965 1.24443 8.77388 1.52098 9.05241 1.98188C 9.93444 3.50285 11.6521 3.50285 11.6521 3.50285C 16.1086 3.41067 15.3659 -3.5164e-07 15.3659 -3.5164e-07C 13.3233 0.691352 10.1201 0.645262 9.00599 0.599172C 8.72745 0.599172 8.58819 0.599172 8.58819 0.599172L 6.82412 0.599172C 6.87055 0.553081 2.55324 0.783533 0.0464226 -3.5164e-07Z"/>
<path id="path6_fill" d="M 9.37737 0.506992L 5.9421 3.5164e-07L 0 5.06992C 0.139268 5.06992 0.371381 5.06992 0.557071 5.06992C 3.20316 5.06992 10.213 7.28225 10.213 7.28225L 6.49917 10.4625C 9.28452 11.0156 18.0584 15.6707 18.0584 15.6707L 18.894 12.6287C 11.8842 7.5127 9.37737 0.506992 9.37737 0.506992Z"/>
<path id="path7_fill" d="M 20.9998 4.97774L 13.8043 -7.0328e-07L 9.95121 0.506992C 10.1833 1.75143 9.39414 4.00985 9.39414 4.00985C -1.70087 12.3522 0.109613 19.7727 0.109613 19.7727C 4.51976 11.1077 14.2221 9.90939 14.2221 9.90939L 9.81194 7.83533C 12.6901 6.03781 20.9998 4.97774 20.9998 4.97774Z"/>
<path id="path8_fill" d="M 0 33.4485C 0 14.9754 14.9754 0 33.4485 0L 33.5192 0C 51.9923 0 66.9677 14.9754 66.9677 33.4485C 66.9677 51.9216 51.9923 66.897 33.5192 66.897L 33.4485 66.897C 14.9754 66.897 0 51.9216 0 33.4485Z"/>
<path id="path9_fill" d="M 18.3375 7.37344C 26.4162 7.37344 35.7484 5.53008 36.5841 3.87106C 37.4198 2.21203 26.184 1.75797e-07 26.184 1.75797e-07C 23.4912 1.24427 18.2911 1.24427 18.2911 1.24427C 18.2911 1.24427 13.0911 1.24427 10.3982 1.75797e-07C 10.3982 1.75797e-07 -0.791132 2.25812 0.0445873 3.91714C 0.926735 5.53008 10.0268 7.37344 18.3375 7.37344Z"/>
<path id="path10_fill" d="M 14.6251 11.1529C 14.6251 11.1529 13.0465 2.2126 11.8858 0.461404C 10.7251 -1.28979 8.96077 2.53518 7.15004 2.53518C 5.33932 2.53518 4.92146 0.0927315 3.29645 0.000563526C 1.62501 -0.0916045 1.77112e-07 11.1529 1.77112e-07 11.1529C 1.77112e-07 11.1529 8.54291 13.0884 14.6251 11.1529Z"/>
<path id="path11_fill" d="M 0.0464288 -3.51593e-07C 0.0464288 -3.51593e-07 -0.696433 3.41022 3.76074 3.50238C 3.76074 3.50238 5.4786 3.50238 6.36075 1.98161C 6.63932 1.52077 7.05718 1.24427 7.61433 1.24427L 7.80005 1.24427C 8.31076 1.24427 8.77505 1.52077 9.05363 1.98161C 9.93577 3.50238 11.6536 3.50238 11.6536 3.50238C 16.1108 3.41022 15.3679 -3.51593e-07 15.3679 -3.51593e-07C 13.3251 0.69126 10.1215 0.645175 9.00719 0.599091C 8.72862 0.599091 8.58934 0.599091 8.58934 0.599091L 6.82504 0.599091C 6.87147 0.553007 2.55359 0.783428 0.0464288 -3.51593e-07Z"/>
<path id="path12_fill" d="M 9.37863 0.506924L 5.94289 3.51593e-07L 0 5.06924C 0.139287 5.06924 0.371431 5.06924 0.557146 5.06924C 3.20359 5.06924 10.2143 7.28127 10.2143 7.28127L 6.50004 10.4611C 9.28577 11.0141 18.0608 15.6686 18.0608 15.6686L 18.8965 12.627C 11.8858 7.51169 9.37863 0.506924 9.37863 0.506924Z"/>
<path id="path13_fill" d="M 21.0026 4.97707L 13.8061 -7.03186e-07L 9.95254 0.506924C 10.1847 1.75119 9.3954 4.00931 9.3954 4.00931C -1.7011 12.3505 0.109628 19.77 0.109628 19.77C 4.52037 11.1062 14.224 9.90806 14.224 9.90806L 9.81326 7.83428C 12.6918 6.037 21.0026 4.97707 21.0026 4.97707Z"/>
<path id="path14_fill" d="M 0 7.6355C 0 3.41853 3.41853 0 7.6355 0L 7.63952 0C 11.8565 0 15.275 3.41853 15.275 7.6355C 15.275 11.8525 11.8565 15.271 7.63952 15.271L 7.6355 15.271C 3.41853 15.271 0 11.8525 0 7.6355Z"/>
<path id="path15_fill" d="M 4.18271 1.68318C 6.0254 1.68318 8.15403 1.26239 8.34465 0.88367C 8.53528 0.504954 5.97245 4.01301e-08 5.97245 4.01301e-08C 5.35822 0.284037 4.17212 0.284037 4.17212 0.284037C 4.17212 0.284037 2.98601 0.284037 2.37178 4.01301e-08C 2.37178 4.01301e-08 -0.180453 0.515474 0.0101702 0.894189C 0.211384 1.26239 2.28706 1.68318 4.18271 1.68318Z"/>
<path id="path16_fill" d="M 3.33591 2.54594C 3.33591 2.54594 2.97585 0.505083 2.71109 0.105327C 2.44634 -0.294428 2.04391 0.578722 1.63089 0.578722C 1.21787 0.578722 1.12256 0.0211684 0.751904 0.00012864C 0.370657 -0.0209111 4.03984e-08 2.54594 4.03984e-08 2.54594C 4.03984e-08 2.54594 1.9486 2.98777 3.33591 2.54594Z"/>
<path id="path17_fill" d="M 0.0105902 -8.02601e-08C 0.0105902 -8.02601e-08 -0.158853 0.778469 0.857806 0.799509C 0.857806 0.799509 1.24964 0.799508 1.45086 0.452353C 1.5144 0.347155 1.60971 0.284036 1.73679 0.284036L 1.77915 0.284036C 1.89565 0.284036 2.00155 0.347155 2.06509 0.452353C 2.2663 0.799508 2.65814 0.799509 2.65814 0.799509C 3.6748 0.778469 3.50535 -8.02601e-08 3.50535 -8.02601e-08C 3.03939 0.157798 2.30866 0.147278 2.0545 0.136758C 1.99096 0.136758 1.95919 0.136758 1.95919 0.136758L 1.55676 0.136758C 1.56735 0.126238 0.582461 0.178837 0.0105902 -8.02601e-08Z"/>
<path id="path18_fill" d="M 2.13922 0.115718L 1.35555 8.02602e-08L 0 1.15719C 0.0317706 1.15719 0.0847216 1.15719 0.127082 1.15719C 0.730724 1.15719 2.32984 1.66214 2.32984 1.66214L 1.48263 2.38801C 2.11804 2.51425 4.11959 3.57676 4.11959 3.57676L 4.31021 2.88244C 2.71109 1.71474 2.13922 0.115718 2.13922 0.115718Z"/>
<path id="path19_fill" d="M 4.79059 1.13615L 3.14911 -1.60521e-07L 2.27013 0.115719C 2.32308 0.399755 2.14304 0.915229 2.14304 0.915229C -0.388012 2.81933 0.0250056 4.51302 0.0250056 4.51302C 1.03107 2.53529 3.24443 2.26177 3.24443 2.26177L 2.23836 1.78838C 2.89495 1.3781 4.79059 1.13615 4.79059 1.13615Z"/>
<path id="path20_fill" d="M 0 7.63226C 0 3.41708 3.41708 0 7.63226 0L 7.64924 0C 11.8644 0 15.2815 3.41708 15.2815 7.63226C 15.2815 11.8474 11.8644 15.2645 7.64924 15.2645L 7.63226 15.2645C 3.41708 15.2645 0 11.8474 0 7.63226Z"/>
<path id="path21_fill" d="M 4.18448 1.68246C 6.02796 1.68246 8.15749 1.26185 8.3482 0.883294C 8.5389 0.50474 5.97499 4.01131e-08 5.97499 4.01131e-08C 5.36049 0.283916 4.17389 0.283916 4.17389 0.283916C 4.17389 0.283916 2.98728 0.283916 2.37279 4.01131e-08C 2.37279 4.01131e-08 -0.18053 0.515255 0.0101745 0.893809C 0.211474 1.26185 2.28803 1.68246 4.18448 1.68246Z"/>
<path id="path22_fill" d="M 3.33733 2.54486C 3.33733 2.54486 2.97711 0.504868 2.71224 0.105283C 2.44738 -0.294303 2.04478 0.578476 1.63158 0.578476C 1.21839 0.578476 1.12304 0.0211594 0.752224 0.000128585C 0.370815 -0.0209022 4.04156e-08 2.54486 4.04156e-08 2.54486C 4.04156e-08 2.54486 1.94942 2.98651 3.33733 2.54486Z"/>
<path id="path23_fill" d="M 0.0105947 -8.0226e-08C 0.0105947 -8.0226e-08 -0.15892 0.778138 0.85817 0.799169C 0.85817 0.799169 1.25017 0.799169 1.45147 0.452161C 1.51504 0.347007 1.61039 0.283915 1.73753 0.283915L 1.77991 0.283915C 1.89645 0.283915 2.0024 0.347007 2.06596 0.452161C 2.26726 0.799169 2.65927 0.799169 2.65927 0.799169C 3.67636 0.778138 3.50684 -8.0226e-08 3.50684 -8.0226e-08C 3.04068 0.157731 2.30964 0.147215 2.05537 0.1367C 1.9918 0.1367 1.96002 0.1367 1.96002 0.1367L 1.55742 0.1367C 1.56801 0.126184 0.582708 0.178761 0.0105947 -8.0226e-08Z"/>
<path id="path24_fill" d="M 2.14013 0.115669L 1.35612 8.02261e-08L 0 1.15669C 0.0317841 1.15669 0.0847575 1.15669 0.127136 1.15669C 0.731034 1.15669 2.33083 1.66143 2.33083 1.66143L 1.48326 2.387C 2.11894 2.51318 4.12134 3.57524 4.12134 3.57524L 4.31204 2.88122C 2.71224 1.71401 2.14013 0.115669 2.14013 0.115669Z"/>
<path id="path25_fill" d="M 4.79263 1.13566L 3.15045 -1.60452e-07L 2.27109 0.115669C 2.32406 0.399585 2.14395 0.91484 2.14395 0.91484C -0.388177 2.81813 0.0250162 4.51111 0.0250162 4.51111C 1.03151 2.53421 3.2458 2.26081 3.2458 2.26081L 2.23931 1.78762C 2.89618 1.37752 4.79263 1.13566 4.79263 1.13566Z"/>
<path id="path26_fill" d="M 0 9.36361C 0 4.19223 4.19223 0 9.36361 0L 9.38176 0C 14.5531 0 18.7454 4.19223 18.7454 9.36361C 18.7454 14.535 14.5531 18.7272 9.38176 18.7272L 9.36361 18.7272C 4.19223 18.7272 0 14.535 0 9.36361Z"/>
<path id="path27_fill" d="M 5.13299 2.06413C 7.39432 2.06413 10.0066 1.5481 10.2405 1.08367C 10.4744 0.619239 7.32934 4.92127e-08 7.32934 4.92127e-08C 6.57556 0.348322 5.11999 0.348322 5.11999 0.348322C 5.11999 0.348322 3.66441 0.348322 2.91063 4.92127e-08C 2.91063 4.92127e-08 -0.221451 0.632139 0.0124807 1.09657C 0.259409 1.5481 2.80666 2.06413 5.13299 2.06413Z"/>
<path id="path28_fill" d="M 4.09381 3.12215C 4.09381 3.12215 3.65194 0.619396 3.32703 0.129166C 3.00213 -0.361065 2.50827 0.709702 2.00142 0.709702C 1.49456 0.709702 1.3776 0.0259594 0.922731 0.000157754C 0.454868 -0.0256439 4.95766e-08 3.12215 4.95766e-08 3.12215C 4.95766e-08 3.12215 2.3913 3.66399 4.09381 3.12215Z"/>
<path id="path29_fill" d="M 0.0129962 -9.84251e-08C 0.0129962 -9.84251e-08 -0.194943 0.954658 1.05269 0.980459C 1.05269 0.980459 1.53355 0.980459 1.78048 0.554733C 1.85846 0.425725 1.97542 0.348321 2.13138 0.348321L 2.18336 0.348321C 2.32632 0.348321 2.45628 0.425725 2.53426 0.554733C 2.78119 0.980459 3.26205 0.980459 3.26205 0.980459C 4.50968 0.954658 4.30174 -9.84251e-08 4.30174 -9.84251e-08C 3.72991 0.193512 2.83317 0.180611 2.52126 0.16771C 2.44329 0.16771 2.4043 0.16771 2.4043 0.16771L 1.91044 0.16771C 1.92344 0.154809 0.714791 0.219313 0.0129962 -9.84251e-08Z"/>
<path id="path30_fill" d="M 2.62523 0.141909L 1.66351 9.84253e-08L 0 1.41909C 0.0389886 1.41909 0.10397 1.41909 0.155954 1.41909C 0.896738 1.41909 2.85917 2.03833 2.85917 2.03833L 1.81947 2.92848C 2.59924 3.08329 5.05552 4.38627 5.05552 4.38627L 5.28946 3.53482C 3.32703 2.10283 2.62523 0.141909 2.62523 0.141909Z"/>
<path id="path31_fill" d="M 5.87898 1.39329L 3.86457 -1.96851e-07L 2.78588 0.141909C 2.85086 0.49023 2.62993 1.12237 2.62993 1.12237C -0.476165 3.45741 0.0306866 5.53444 0.0306866 5.53444C 1.26533 3.10909 3.98153 2.77367 3.98153 2.77367L 2.74689 2.19314C 3.55266 1.69 5.87898 1.39329 5.87898 1.39329Z"/>
<path id="path32_fill" d="M 0 33.454C 0 14.9779 14.9779 0 33.454 0L 33.5027 0C 51.9789 0 66.9567 14.9779 66.9567 33.454C 66.9567 51.9302 51.9789 66.908 33.5027 66.908L 33.454 66.908C 14.9779 66.908 0 51.9302 0 33.454Z"/>
<path id="path33_fill" d="M 18.3345 7.37465C 26.4118 7.37465 35.7425 5.53099 36.5781 3.87169C 37.4137 2.2124 26.1797 1.75825e-07 26.1797 1.75825e-07C 23.4873 1.24447 18.2881 1.24447 18.2881 1.24447C 18.2881 1.24447 13.0889 1.24447 10.3965 1.75825e-07C 10.3965 1.75825e-07 -0.791002 2.25849 0.04458 3.91778C 0.926583 5.53099 10.0251 7.37465 18.3345 7.37465Z"/>
<path id="path34_fill" d="M 14.6227 11.1547C 14.6227 11.1547 13.0444 2.21296 11.8838 0.461479C 10.7233 -1.29 8.9593 2.5356 7.14887 2.5356C 5.33844 2.5356 4.92065 0.0927468 3.29591 0.000563619C 1.62474 -0.0916195 1.77083e-07 11.1547 1.77083e-07 11.1547C 1.77083e-07 11.1547 8.54151 13.0906 14.6227 11.1547Z"/>
<path id="path35_fill" d="M 0.0464212 -3.51651e-07C 0.0464212 -3.51651e-07 -0.696318 3.41078 3.76012 3.50296C 3.76012 3.50296 5.4777 3.50296 6.35971 1.98194C 6.63824 1.52102 7.05603 1.24447 7.61308 1.24447L 7.79877 1.24447C 8.3094 1.24447 8.77361 1.52102 9.05214 1.98194C 9.93414 3.50296 11.6517 3.50296 11.6517 3.50296C 16.1082 3.41078 15.3654 -3.51651e-07 15.3654 -3.51651e-07C 13.3229 0.691373 10.1198 0.645281 9.00572 0.59919C 8.72719 0.59919 8.58793 0.59919 8.58793 0.59919L 6.82392 0.59919C 6.87034 0.553098 2.55317 0.783556 0.0464212 -3.51651e-07Z"/>
<path id="path36_fill" d="M 9.37709 0.507007L 5.94192 3.51651e-07L 0 5.07007C 0.139264 5.07007 0.37137 5.07007 0.557055 5.07007C 3.20306 5.07007 10.2127 7.28247 10.2127 7.28247L 6.49897 10.4628C 9.28425 11.0159 18.0579 15.6711 18.0579 15.6711L 18.8934 12.6291C 11.8838 7.51292 9.37709 0.507007 9.37709 0.507007Z"/>
<path id="path37_fill" d="M 20.9992 4.97789L 13.8039 -7.03302e-07L 9.95091 0.507008C 10.183 1.75148 9.39386 4.00997 9.39386 4.00997C -1.70082 12.3525 0.10961 19.7733 0.10961 19.7733C 4.51963 11.1081 14.2217 9.90969 14.2217 9.90969L 9.81165 7.83557C 12.6898 6.03799 20.9992 4.97789 20.9992 4.97789Z"/>
<path id="path38_fill" d="M 0 33.4482C 0 14.9753 14.9753 0 33.4482 0L 33.5201 0C 51.993 0 66.9683 14.9753 66.9683 33.4482C 66.9683 51.9212 51.993 66.8964 33.5201 66.8964L 33.4482 66.8964C 14.9753 66.8964 0 51.9212 0 33.4482Z"/>
<path id="path39_fill" d="M 18.3377 7.37337C 26.4164 7.37337 35.7487 5.53003 36.5844 3.87102C 37.4201 2.21201 26.1843 1.75795e-07 26.1843 1.75795e-07C 23.4914 1.24426 18.2913 1.24426 18.2913 1.24426C 18.2913 1.24426 13.0912 1.24426 10.3983 1.75795e-07C 10.3983 1.75795e-07 -0.791139 2.25809 0.0445877 3.9171C 0.926744 5.53003 10.0269 7.37337 18.3377 7.37337Z"/>
<path id="path40_fill" d="M 14.6252 11.1528C 14.6252 11.1528 13.0466 2.21258 11.8859 0.461399C 10.7252 -1.28978 8.96085 2.53516 7.15011 2.53516C 5.33937 2.53516 4.9215 0.0927307 3.29648 0.000563521C 1.62502 -0.0916036 1.77114e-07 11.1528 1.77114e-07 11.1528C 1.77114e-07 11.1528 8.54298 13.0883 14.6252 11.1528Z"/>
<path id="path41_fill" d="M 0.0464293 -3.5159e-07C 0.0464293 -3.5159e-07 -0.696439 3.41019 3.76077 3.50235C 3.76077 3.50235 5.47865 3.50235 6.36081 1.98159C 6.63938 1.52076 7.05725 1.24426 7.6144 1.24426L 7.80012 1.24426C 8.31084 1.24426 8.77513 1.52076 9.05371 1.98159C 9.93586 3.50235 11.6537 3.50235 11.6537 3.50235C 16.111 3.41019 15.3681 -3.5159e-07 15.3681 -3.5159e-07C 13.3252 0.691253 10.1216 0.645169 9.00728 0.599086C 8.7287 0.599086 8.58941 0.599086 8.58941 0.599086L 6.8251 0.599086C 6.87153 0.553002 2.55361 0.78342 0.0464293 -3.5159e-07Z"/>
<path id="path42_fill" d="M 9.37871 0.506919L 5.94295 3.5159e-07L 0 5.06919C 0.139288 5.06919 0.371434 5.06919 0.557151 5.06919C 3.20362 5.06919 10.2144 7.28121 10.2144 7.28121L 6.5001 10.461C 9.28585 11.014 18.061 15.6684 18.061 15.6684L 18.8967 12.6269C 11.8859 7.51162 9.37871 0.506919 9.37871 0.506919Z"/>
<path id="path43_fill" d="M 21.0028 4.97703L 13.8063 -7.0318e-07L 9.95263 0.50692C 10.1848 1.75118 9.39548 4.00927 9.39548 4.00927C -1.70111 12.3504 0.109629 19.7699 0.109629 19.7699C 4.52041 11.1061 14.2241 9.90797 14.2241 9.90797L 9.81335 7.83421C 12.692 6.03695 21.0028 4.97703 21.0028 4.97703Z"/>
<path id="path44_fill" d="M 0 12.5335C 0 5.61145 5.61145 0 12.5335 0L 12.549 0C 19.4711 0 25.0826 5.61145 25.0826 12.5335C 25.0826 19.4556 19.4711 25.0671 12.549 25.0671L 12.5335 25.0671C 5.61145 25.0671 0 19.4556 0 12.5335Z"/>
<path id="path45_fill" d="M 6.86828 2.76291C 9.8941 2.76291 13.3894 2.07218 13.7025 1.45053C 14.0155 0.828873 9.80715 6.58729e-08 9.80715 6.58729e-08C 8.79854 0.466241 6.85089 0.466241 6.85089 0.466241C 6.85089 0.466241 4.90323 0.466241 3.89462 6.58729e-08C 3.89462 6.58729e-08 -0.296316 0.846141 0.0167 1.4678C 0.347106 2.07218 3.7555 2.76291 6.86828 2.76291Z"/>
<path id="path46_fill" d="M 5.47778 4.17911C 5.47778 4.17911 4.88653 0.829084 4.45179 0.172893C 4.01704 -0.483298 3.35623 0.949961 2.67803 0.949961C 1.99983 0.949961 1.84332 0.0347475 1.23468 0.000211159C 0.608643 -0.0343252 6.63368e-08 4.17911 6.63368e-08 4.17911C 6.63368e-08 4.17911 3.19972 4.90438 5.47778 4.17911Z"/>
<path id="path47_fill" d="M 0.0173898 -1.31746e-07C 0.0173898 -1.31746e-07 -0.260847 1.27784 1.40857 1.31238C 1.40857 1.31238 2.05199 1.31238 2.3824 0.74253C 2.48674 0.569849 2.64325 0.46624 2.85192 0.46624L 2.92148 0.46624C 3.11277 0.46624 3.28667 0.569849 3.39101 0.74253C 3.72141 1.31238 4.36484 1.31238 4.36484 1.31238C 6.03426 1.27784 5.75602 -1.31746e-07 5.75602 -1.31746e-07C 4.99087 0.259022 3.79097 0.241754 3.37362 0.224486C 3.26928 0.224486 3.21711 0.224486 3.21711 0.224486L 2.5563 0.224486C 2.57369 0.207218 0.956438 0.293559 0.0173898 -1.31746e-07Z"/>
<path id="path48_fill" d="M 3.51274 0.18995L 2.22589 1.31746e-07L 0 1.8995C 0.0521694 1.8995 0.139118 1.8995 0.208677 1.8995C 1.1999 1.8995 3.82575 2.72837 3.82575 2.72837L 2.43457 3.91988C 3.47796 4.12709 6.76463 5.87118 6.76463 5.87118L 7.07764 4.73148C 4.45179 2.81471 3.51274 0.18995 3.51274 0.18995Z"/>
<path id="path49_fill" d="M 7.86646 1.86496L 5.17105 -2.63491e-07L 3.7277 0.18995C 3.81464 0.656191 3.51902 1.50233 3.51902 1.50233C -0.637141 4.62787 0.0410607 7.40805 0.0410607 7.40805C 1.69309 4.16163 5.32756 3.71266 5.32756 3.71266L 3.67553 2.93559C 4.75369 2.26213 7.86646 1.86496 7.86646 1.86496Z"/>
<path id="path50_fill" d="M 0 12.5316C 0 5.61058 5.61058 0 12.5316 0L 12.5549 0C 19.4759 0 25.0864 5.61058 25.0864 12.5316C 25.0864 19.4526 19.4759 25.0632 12.5549 25.0632L 12.5316 25.0632C 5.61058 25.0632 0 19.4526 0 12.5316Z"/>
<path id="path51_fill" d="M 6.86934 2.76248C 9.89563 2.76248 13.3915 2.07186 13.7046 1.4503C 14.0176 0.828744 9.80867 6.58627e-08 9.80867 6.58627e-08C 8.7999 0.466169 6.85195 0.466169 6.85195 0.466169C 6.85195 0.466169 4.90399 0.466169 3.89522 6.58627e-08C 3.89522 6.58627e-08 -0.296362 0.846009 0.0167026 1.46757C 0.34716 2.07186 3.75608 2.76248 6.86934 2.76248Z"/>
<path id="path52_fill" d="M 5.47863 4.17846C 5.47863 4.17846 4.88729 0.828955 4.45248 0.172866C 4.01766 -0.483223 3.35675 0.949814 2.67844 0.949814C 2.00014 0.949814 1.8436 0.0347421 1.23487 0.000211127C 0.608737 -0.0343199 6.6347e-08 4.17846 6.6347e-08 4.17846C 6.6347e-08 4.17846 3.20022 4.90361 5.47863 4.17846Z"/>
<path id="path53_fill" d="M 0.0173925 -1.31725e-07C 0.0173925 -1.31725e-07 -0.260887 1.27765 1.40879 1.31218C 1.40879 1.31218 2.05231 1.31218 2.38277 0.742415C 2.48712 0.569761 2.64366 0.466168 2.85237 0.466168L 2.92194 0.466168C 3.11325 0.466168 3.28718 0.569761 3.39153 0.742415C 3.72199 1.31218 4.36551 1.31218 4.36551 1.31218C 6.03519 1.27765 5.75691 -1.31725e-07 5.75691 -1.31725e-07C 4.99164 0.258982 3.79156 0.241716 3.37414 0.224451C 3.26979 0.224451 3.21761 0.224451 3.21761 0.224451L 2.55669 0.224451C 2.57409 0.207186 0.956586 0.293513 0.0173925 -1.31725e-07Z"/>
<path id="path54_fill" d="M 3.51328 0.18992L 2.22624 1.31725e-07L 0 1.8992C 0.0521774 1.8992 0.13914 1.8992 0.20871 1.8992C 1.20008 1.8992 3.82634 2.72795 3.82634 2.72795L 2.43495 3.91927C 3.4785 4.12645 6.76567 5.87027 6.76567 5.87027L 7.07874 4.73075C 4.45247 2.81428 3.51328 0.18992 3.51328 0.18992Z"/>
<path id="path55_fill" d="M 7.86768 1.86467L 5.17185 -2.63451e-07L 3.72827 0.189921C 3.81523 0.656089 3.51956 1.5021 3.51956 1.5021C -0.637239 4.62715 0.0410671 7.4069 0.0410671 7.4069C 1.69335 4.16099 5.32838 3.71208 5.32838 3.71208L 3.67609 2.93513C 4.75443 2.26178 7.86768 1.86467 7.86768 1.86467Z"/>
<path id="path56_fill" d="M 0 7.48204C 0 3.34982 3.34982 0 7.48204 0L 7.49534 0C 11.6276 0 14.9774 3.34982 14.9774 7.48204C 14.9774 11.6143 11.6276 14.9641 7.49534 14.9641L 7.48204 14.9641C 3.34982 14.9641 0 11.6143 0 7.48204Z"/>
<path id="path57_fill" d="M 4.10121 1.64935C 5.908 1.64935 7.99515 1.23701 8.18206 0.865909C 8.36897 0.494805 5.85608 3.93236e-08 5.85608 3.93236e-08C 5.25381 0.278328 4.09082 0.278328 4.09082 0.278328C 4.09082 0.278328 2.92783 0.278328 2.32557 3.93236e-08C 2.32557 3.93236e-08 -0.176937 0.505114 0.00997199 0.876218C 0.207265 1.23701 2.2425 1.64935 4.10121 1.64935Z"/>
<path id="path58_fill" d="M 3.27091 2.49477C 3.27091 2.49477 2.91786 0.494932 2.65827 0.103211C 2.39867 -0.288511 2.00408 0.567091 1.59911 0.567091C 1.19414 0.567091 1.10069 0.020743 0.737254 0.000126054C 0.363435 -0.0204908 3.96113e-08 2.49477 3.96113e-08 2.49477C 3.96113e-08 2.49477 1.91063 2.92773 3.27091 2.49477Z"/>
<path id="path59_fill" d="M 0.0103838 -7.8647e-08C 0.0103838 -7.8647e-08 -0.155758 0.762823 0.841092 0.78344C 0.841092 0.78344 1.22529 0.78344 1.42259 0.443262C 1.48489 0.340178 1.57834 0.278327 1.70295 0.278327L 1.74449 0.278327C 1.85871 0.278327 1.96255 0.340178 2.02485 0.443262C 2.22214 0.78344 2.60635 0.78344 2.60635 0.78344C 3.60319 0.762823 3.43705 -7.8647e-08 3.43705 -7.8647e-08C 2.98016 0.154626 2.26368 0.144318 2.01447 0.134009C 1.95216 0.134009 1.92101 0.134009 1.92101 0.134009L 1.52643 0.134009C 1.53681 0.123701 0.571112 0.175243 0.0103838 -7.8647e-08Z"/>
<path id="path60_fill" d="M 2.09754 0.113393L 1.32913 7.86471e-08L 0 1.13393C 0.0311515 1.13393 0.0830708 1.13393 0.124606 1.13393C 0.716486 1.13393 2.28445 1.62873 2.28445 1.62873L 1.45374 2.34002C 2.07677 2.46372 4.03932 3.50487 4.03932 3.50487L 4.22623 2.82451C 2.65827 1.68028 2.09754 0.113393 2.09754 0.113393Z"/>
<path id="path61_fill" d="M 4.69725 1.11331L 3.08775 -1.57294e-07L 2.22589 0.113393C 2.27781 0.391721 2.10129 0.896834 2.10129 0.896834C -0.380452 2.76266 0.0245183 4.42232 0.0245183 4.42232C 1.01098 2.48433 3.18121 2.21631 3.18121 2.21631L 2.19474 1.75243C 2.83854 1.35041 4.69725 1.11331 4.69725 1.11331Z"/>
<path id="path62_fill" d="M 0 12.5339C 0 5.61162 5.61162 0 12.5339 0L 12.5479 0C 19.4702 0 25.0818 5.61162 25.0818 12.5339C 25.0818 19.4562 19.4702 25.0678 12.5479 25.0678L 12.5339 25.0678C 5.61162 25.0678 0 19.4562 0 12.5339Z"/>
<path id="path63_fill" d="M 6.86807 2.76299C 9.89381 2.76299 13.3891 2.07224 13.7021 1.45057C 14.0151 0.828897 9.80686 6.58748e-08 9.80686 6.58748e-08C 8.79828 0.466255 6.85068 0.466254 6.85068 0.466254C 6.85068 0.466254 4.90309 0.466255 3.89451 6.58748e-08C 3.89451 6.58748e-08 -0.296307 0.846165 0.0166996 1.46784C 0.347096 2.07224 3.75539 2.76299 6.86807 2.76299Z"/>
<path id="path64_fill" d="M 5.47762 4.17923C 5.47762 4.17923 4.88639 0.829108 4.45166 0.172898C 4.01692 -0.483312 3.35613 0.949989 2.67795 0.949989C 1.99977 0.949989 1.84326 0.0347485 1.23464 0.000211166C 0.608625 -0.0343262 6.63348e-08 4.17923 6.63348e-08 4.17923C 6.63348e-08 4.17923 3.19963 4.90452 5.47762 4.17923Z"/>
<path id="path65_fill" d="M 0.0173893 -1.31749e-07C 0.0173893 -1.31749e-07 -0.260839 1.27788 1.40853 1.31242C 1.40853 1.31242 2.05193 1.31242 2.38233 0.742552C 2.48667 0.569866 2.64317 0.466254 2.85184 0.466254L 2.9214 0.466254C 3.11268 0.466254 3.28657 0.569866 3.39091 0.742552C 3.7213 1.31242 4.36471 1.31242 4.36471 1.31242C 6.03408 1.27788 5.75585 -1.31749e-07 5.75585 -1.31749e-07C 4.99072 0.25903 3.79086 0.241761 3.37352 0.224492C 3.26918 0.224492 3.21702 0.224492 3.21702 0.224492L 2.55622 0.224492C 2.57361 0.207224 0.95641 0.293567 0.0173893 -1.31749e-07Z"/>
<path id="path66_fill" d="M 3.51263 0.189955L 2.22583 1.3175e-07L 0 1.89955C 0.0521678 1.89955 0.139114 1.89955 0.208671 1.89955C 1.19986 1.89955 3.82564 2.72845 3.82564 2.72845L 2.4345 3.91999C 3.47786 4.12721 6.76443 5.87135 6.76443 5.87135L 7.07744 4.73162C 4.45165 2.81479 3.51263 0.189955 3.51263 0.189955Z"/>
<path id="path67_fill" d="M 7.86623 1.86502L 5.1709 -2.63499e-07L 3.72759 0.189956C 3.81453 0.65621 3.51891 1.50238 3.51891 1.50238C -0.637122 4.62801 0.0410595 7.40826 0.0410595 7.40826C 1.69304 4.16175 5.3274 3.71277 5.3274 3.71277L 3.67542 2.93568C 4.75355 2.2622 7.86623 1.86502 7.86623 1.86502Z"/>
<path id="path68_fill" d="M 0 12.5329C 0 5.61117 5.61117 0 12.5329 0L 12.5509 0C 19.4726 0 25.0838 5.61117 25.0838 12.5329C 25.0838 19.4546 19.4726 25.0658 12.5509 25.0658L 12.5329 25.0658C 5.61117 25.0658 0 19.4546 0 12.5329Z"/>
<path id="path69_fill" d="M 6.86862 2.76277C 9.89459 2.76277 13.3901 2.07208 13.7031 1.45045C 14.0162 0.828831 9.80764 6.58696e-08 9.80764 6.58696e-08C 8.79898 0.466218 6.85123 0.466217 6.85123 0.466217C 6.85123 0.466217 4.90348 0.466218 3.89482 6.58696e-08C 3.89482 6.58696e-08 -0.296331 0.846098 0.0167009 1.46772C 0.347123 2.07208 3.75569 2.76277 6.86862 2.76277Z"/>
<path id="path70_fill" d="M 5.47806 4.1789C 5.47806 4.1789 4.88678 0.829042 4.45201 0.172884C 4.01724 -0.483274 3.3564 0.949914 2.67816 0.949914C 1.99993 0.949914 1.84341 0.0347458 1.23474 0.000211149C 0.608673 -0.0343235 6.63401e-08 4.1789 6.63401e-08 4.1789C 6.63401e-08 4.1789 3.19988 4.90413 5.47806 4.1789Z"/>
<path id="path71_fill" d="M 0.0173907 -1.31739e-07C 0.0173907 -1.31739e-07 -0.26086 1.27778 1.40864 1.31231C 1.40864 1.31231 2.0521 1.31231 2.38252 0.742493C 2.48686 0.56982 2.64338 0.466217 2.85207 0.466217L 2.92163 0.466217C 3.11293 0.466217 3.28683 0.56982 3.39118 0.742493C 3.7216 1.31231 4.36505 1.31231 4.36505 1.31231C 6.03456 1.27778 5.75631 -1.31739e-07 5.75631 -1.31739e-07C 4.99112 0.259009 3.79116 0.241742 3.37379 0.224475C 3.26944 0.224475 3.21727 0.224475 3.21727 0.224475L 2.55643 0.224475C 2.57382 0.207207 0.956486 0.293544 0.0173907 -1.31739e-07Z"/>
<path id="path72_fill" d="M 3.51291 0.18994L 2.226 1.31739e-07L 0 1.8994C 0.052172 1.8994 0.139125 1.8994 0.208688 1.8994C 1.19996 1.8994 3.82594 2.72823 3.82594 2.72823L 2.43469 3.91968C 3.47813 4.12689 6.76497 5.87088 6.76497 5.87088L 7.078 4.73124C 4.45201 2.81457 3.51291 0.18994 3.51291 0.18994Z"/>
<path id="path73_fill" d="M 7.86686 1.86487L 5.17131 -2.63478e-07L 3.72788 0.189941C 3.81484 0.656158 3.51919 1.50226 3.51919 1.50226C -0.637173 4.62764 0.0410628 7.40768 0.0410628 7.40768C 1.69318 4.16142 5.32782 3.71247 5.32782 3.71247L 3.67571 2.93544C 4.75393 2.26202 7.86686 1.86487 7.86686 1.86487Z"/>
<path id="path74_fill" d="M 0 7.6329C 0 3.41737 3.41737 0 7.6329 0L 7.64731 0C 11.8628 0 15.2802 3.41737 15.2802 7.6329C 15.2802 11.8484 11.8628 15.2658 7.64731 15.2658L 7.6329 15.2658C 3.41737 15.2658 0 11.8484 0 7.6329Z"/>
<path id="path75_fill" d="M 4.18413 1.68261C 6.02745 1.68261 8.1568 1.26196 8.34749 0.883369C 8.53818 0.504782 5.97448 4.01165e-08 5.97448 4.01165e-08C 5.36004 0.28394 4.17353 0.28394 4.17353 0.28394C 4.17353 0.28394 2.98703 0.28394 2.37259 4.01165e-08C 2.37259 4.01165e-08 -0.180515 0.515298 0.0101736 0.893885C 0.211456 1.26196 2.28784 1.68261 4.18413 1.68261Z"/>
<path id="path76_fill" d="M 3.33705 2.54507C 3.33705 2.54507 2.97686 0.504911 2.71201 0.105292C 2.44717 -0.294328 2.0446 0.578525 1.63145 0.578525C 1.21829 0.578525 1.12294 0.0211612 0.75216 0.000128596C 0.370783 -0.020904 4.04121e-08 2.54507 4.04121e-08 2.54507C 4.04121e-08 2.54507 1.94926 2.98676 3.33705 2.54507Z"/>
<path id="path77_fill" d="M 0.0105938 -8.02328e-08C 0.0105938 -8.02328e-08 -0.158907 0.778204 0.858097 0.799237C 0.858097 0.799237 1.25007 0.799236 1.45135 0.452199C 1.51491 0.347037 1.61026 0.283939 1.73738 0.283939L 1.77976 0.283939C 1.89629 0.283939 2.00223 0.347037 2.06579 0.452199C 2.26707 0.799236 2.65904 0.799237 2.65904 0.799237C 3.67605 0.778204 3.50655 -8.02328e-08 3.50655 -8.02328e-08C 3.04042 0.157744 2.30945 0.147228 2.0552 0.136711C 1.99163 0.136711 1.95985 0.136711 1.95985 0.136711L 1.55729 0.136711C 1.56788 0.126195 0.582659 0.178777 0.0105938 -8.02328e-08Z"/>
<path id="path78_fill" d="M 2.13995 0.115679L 1.35601 8.02329e-08L 0 1.15679C 0.0317814 1.15679 0.0847504 1.15679 0.127126 1.15679C 0.730972 1.15679 2.33064 1.66157 2.33064 1.66157L 1.48313 2.3872C 2.11876 2.51339 4.12099 3.57554 4.12099 3.57554L 4.31168 2.88146C 2.71201 1.71415 2.13995 0.115679 2.13995 0.115679Z"/>
<path id="path79_fill" d="M 4.79222 1.13576L 3.15018 -1.60466e-07L 2.2709 0.115679C 2.32387 0.399619 2.14377 0.914917 2.14377 0.914917C -0.388144 2.81837 0.0250141 4.51149 0.0250141 4.51149C 1.03142 2.53443 3.24553 2.261 3.24553 2.261L 2.23912 1.78777C 2.89593 1.37763 4.79222 1.13576 4.79222 1.13576Z"/>
<path id="path80_fill" d="M 0 7.63376C 0 3.41775 3.41775 0 7.63376 0L 7.64473 0C 11.8607 0 15.2785 3.41775 15.2785 7.63376C 15.2785 11.8498 11.8607 15.2675 7.64473 15.2675L 7.63376 15.2675C 3.41775 15.2675 0 11.8498 0 7.63376Z"/>
<path id="path81_fill" d="M 4.18366 1.6828C 6.02677 1.6828 8.15589 1.2621 8.34655 0.883468C 8.53722 0.504839 5.97381 4.0121e-08 5.97381 4.0121e-08C 5.35944 0.283972 4.17307 0.283972 4.17307 0.283972C 4.17307 0.283972 2.98669 0.283972 2.37232 4.0121e-08C 2.37232 4.0121e-08 -0.180494 0.515356 0.0101725 0.893986C 0.211432 1.2621 2.28758 1.6828 4.18366 1.6828Z"/>
<path id="path82_fill" d="M 3.33667 2.54536C 3.33667 2.54536 2.97652 0.504968 2.71171 0.105303C 2.44689 -0.294361 2.04437 0.57859 1.63126 0.57859C 1.21815 0.57859 1.12282 0.0211636 0.752076 0.00012861C 0.370742 -0.0209064 4.04076e-08 2.54536 4.04076e-08 2.54536C 4.04076e-08 2.54536 1.94904 2.98709 3.33667 2.54536Z"/>
<path id="path83_fill" d="M 0.0105926 -8.02418e-08C 0.0105926 -8.02418e-08 -0.158889 0.778292 0.858001 0.799327C 0.858001 0.799327 1.24993 0.799326 1.45119 0.45225C 1.51474 0.347076 1.61008 0.283971 1.73719 0.283971L 1.77956 0.283971C 1.89608 0.283971 2.002 0.347076 2.06556 0.45225C 2.26682 0.799326 2.65874 0.799327 2.65874 0.799327C 3.67563 0.778292 3.50615 -8.02418e-08 3.50615 -8.02418e-08C 3.04008 0.157762 2.30919 0.147244 2.05497 0.136727C 1.99141 0.136727 1.95963 0.136727 1.95963 0.136727L 1.55711 0.136727C 1.56771 0.126209 0.582593 0.178797 0.0105926 -8.02418e-08Z"/>
<path id="path84_fill" d="M 2.13971 0.115692L 1.35585 8.0242e-08L 0 1.15692C 0.0317778 1.15692 0.0847409 1.15692 0.127111 1.15692C 0.73089 1.15692 2.33037 1.66176 2.33037 1.66176L 1.48296 2.38747C 2.11852 2.51368 4.12052 3.57594 4.12052 3.57594L 4.31119 2.88179C 2.71171 1.71435 2.13971 0.115692 2.13971 0.115692Z"/>
<path id="path85_fill" d="M 4.79168 1.13589L 3.14983 -1.60484e-07L 2.27064 0.115692C 2.32361 0.399664 2.14353 0.91502 2.14353 0.91502C -0.3881 2.81868 0.0250112 4.512 0.0250112 4.512C 1.03131 2.53471 3.24516 2.26126 3.24516 2.26126L 2.23887 1.78797C 2.89561 1.37779 4.79168 1.13589 4.79168 1.13589Z"/>
<path id="path86_fill" d="M 0 4.29181C 0 1.92151 1.92151 0 4.29181 0C 6.66211 0 8.58362 1.92151 8.58362 4.29181L 8.58362 4.2959C 8.58362 6.6662 6.66211 8.58771 4.29181 8.58771C 1.92151 8.58771 0 6.6662 0 4.2959L 0 4.29181Z"/>
<path id="path87_fill" d="M 0 9.36335C 0 4.19212 4.19212 0 9.36335 0L 9.38255 0C 14.5538 0 18.7459 4.19212 18.7459 9.36335C 18.7459 14.5346 14.5538 18.7267 9.38255 18.7267L 9.36335 18.7267C 4.19212 18.7267 0 14.5346 0 9.36335Z"/>
<path id="path88_fill" d="M 5.13313 2.06407C 7.39453 2.06407 10.0068 1.54805 10.2408 1.08364C 10.4747 0.619221 7.32955 4.92113e-08 7.32955 4.92113e-08C 6.57575 0.348312 5.12013 0.348312 5.12013 0.348312C 5.12013 0.348312 3.66452 0.348312 2.91072 4.92113e-08C 2.91072 4.92113e-08 -0.221457 0.632121 0.0124811 1.09654C 0.259416 1.54805 2.80674 2.06407 5.13313 2.06407Z"/>
<path id="path89_fill" d="M 4.09392 3.12207C 4.09392 3.12207 3.65204 0.619379 3.32712 0.129162C 3.00221 -0.361055 2.50834 0.709682 2.00147 0.709682C 1.49461 0.709682 1.37764 0.0259586 0.922757 0.00015775C 0.45488 -0.0256431 4.9578e-08 3.12207 4.9578e-08 3.12207C 4.9578e-08 3.12207 2.39137 3.66388 4.09392 3.12207Z"/>
<path id="path90_fill" d="M 0.0129966 -9.84224e-08C 0.0129966 -9.84224e-08 -0.194949 0.954631 1.05272 0.980432C 1.05272 0.980432 1.53359 0.980431 1.78053 0.554718C 1.85851 0.425713 1.97548 0.348311 2.13144 0.348311L 2.18342 0.348311C 2.32639 0.348311 2.45635 0.425713 2.53433 0.554718C 2.78127 0.980431 3.26214 0.980432 3.26214 0.980432C 4.50981 0.954631 4.30186 -9.84224e-08 4.30186 -9.84224e-08C 3.73002 0.193506 2.83325 0.180606 2.52133 0.167705C 2.44335 0.167705 2.40437 0.167705 2.40437 0.167705L 1.9105 0.167705C 1.92349 0.154805 0.714811 0.219307 0.0129966 -9.84224e-08Z"/>
<path id="path91_fill" d="M 2.62531 0.141905L 1.66356 9.84225e-08L 0 1.41905C 0.0389897 1.41905 0.103973 1.41905 0.155959 1.41905C 0.896763 1.41905 2.85925 2.03827 2.85925 2.03827L 1.81952 2.9284C 2.59931 3.0832 5.05567 4.38615 5.05567 4.38615L 5.2896 3.53472C 3.32712 2.10277 2.62531 0.141905 2.62531 0.141905Z"/>
<path id="path92_fill" d="M 5.87914 1.39325L 3.86468 -1.96845e-07L 2.78596 0.141905C 2.85094 0.490217 2.63 1.12234 2.63 1.12234C -0.476179 3.45732 0.0306875 5.53429 0.0306875 5.53429C 1.26536 3.10901 3.98164 2.77359 3.98164 2.77359L 2.74697 2.19307C 3.55276 1.68996 5.87914 1.39325 5.87914 1.39325Z"/>
</defs>
</svg>
